<svg width="26" height="25" viewBox="0 0 26 25" fill="none" xmlns="http://www.w3.org/2000/svg">
<path d="M0.919922 12.48C0.919922 5.58749 6.50741 0 13.3999 0C20.2924 0 25.8799 5.58749 25.8799 12.48C25.8799 19.3725 20.2924 24.96 13.3999 24.96C6.50741 24.96 0.919922 19.3725 0.919922 12.48Z" fill="#F68634"/>
<path d="M14.7499 15.3089L16.615 17.1094C16.9971 17.4775 16.9971 18.0752 16.615 18.4436C16.2333 18.8121 15.6147 18.8121 15.2334 18.4436L13.3997 16.6743L11.5675 18.4436C11.3765 18.6277 11.1262 18.7198 10.8758 18.7198C10.6259 18.7198 10.376 18.6277 10.185 18.4436C9.80328 18.0752 9.80328 17.4779 10.1846 17.1094L12.0498 15.3089C11.3707 15.1596 10.7157 14.8998 10.1125 14.5345C9.65596 14.2566 9.51882 13.6745 9.80647 13.2334C10.0933 12.7918 10.6966 12.6588 11.1539 12.9367C12.5197 13.766 14.2792 13.7662 15.6458 12.9367C16.1031 12.6588 16.7062 12.7918 16.9937 13.2334C17.2813 13.6741 17.1438 14.2566 16.6872 14.5345C16.084 14.9002 15.429 15.1596 14.7499 15.3089Z" fill="white"/>
<path fill-rule="evenodd" clip-rule="evenodd" d="M10.0552 9.46065C10.0552 11.2361 11.5515 12.6804 13.3915 12.6804C15.2318 12.6804 16.7277 11.2361 16.7277 9.46065C16.7277 7.68461 15.2318 6.23999 13.3915 6.23999C11.5515 6.23999 10.0552 7.68461 10.0552 9.46065ZM14.7728 9.46065C14.7728 8.72534 14.1532 8.12741 13.3915 8.12741C12.6303 8.12741 12.0101 8.72534 12.0101 9.46065C12.0101 10.1954 12.6303 10.7937 13.3915 10.7937C14.1532 10.7937 14.7728 10.1954 14.7728 9.46065Z" fill="white"/>
</svg>
