<svg width="167" height="138" viewBox="0 0 167 138" fill="none" xmlns="http://www.w3.org/2000/svg">
<g opacity="0.5" filter="url(#filter0_f_137_64)">
<rect width="38.9151" height="38.9151" transform="matrix(0.866042 -0.499971 0.866042 0.499971 49.9116 68.9971)" fill="#00C5FF"/>
</g>
<g filter="url(#filter1_f_137_64)">
<rect width="27.2975" height="27.2975" transform="matrix(0.866043 -0.499969 0.866043 0.499969 60.4957 72.6572)" fill="#00C5FF"/>
</g>
<g filter="url(#filter2_f_137_64)">
<rect width="17.862" height="17.862" transform="matrix(0.866043 -0.499969 0.866043 0.499969 68.2946 71.8394)" fill="#62DBFF"/>
</g>
<g filter="url(#filter3_f_137_64)">
<path d="M73.3081 68.8976V66.9479L83.6138 60.9595L93.9194 66.8086V68.8976L83.753 74.886L73.3081 68.8976Z" fill="#51D4FB"/>
<path d="M73.3081 66.9474V64.9977L83.6138 59.0093L93.9194 64.8584V66.9474L83.753 72.9358L73.3081 66.9474Z" fill="#51D4FB"/>
</g>
<path d="M73.3081 64.9972V63.0475L83.6138 57.0591L93.9194 62.9082V64.9972L83.753 70.9856L73.3081 64.9972Z" fill="#45D1FB"/>
<defs>
<filter id="filter0_f_137_64" x="0.91156" y="0.540527" width="165.404" height="136.913" filterUnits="userSpaceOnUse" color-interpolation-filters="sRGB">
<feFlood flood-opacity="0" result="BackgroundImageFix"/>
<feBlend mode="normal" in="SourceGraphic" in2="BackgroundImageFix" result="shape"/>
<feGaussianBlur stdDeviation="24.5" result="effect1_foregroundBlur_137_64"/>
</filter>
<filter id="filter1_f_137_64" x="55.4957" y="54.0093" width="57.2817" height="37.2959" filterUnits="userSpaceOnUse" color-interpolation-filters="sRGB">
<feFlood flood-opacity="0" result="BackgroundImageFix"/>
<feBlend mode="normal" in="SourceGraphic" in2="BackgroundImageFix" result="shape"/>
<feGaussianBlur stdDeviation="2.5" result="effect1_foregroundBlur_137_64"/>
</filter>
<filter id="filter2_f_137_64" x="63.2946" y="57.9087" width="40.9386" height="27.8613" filterUnits="userSpaceOnUse" color-interpolation-filters="sRGB">
<feFlood flood-opacity="0" result="BackgroundImageFix"/>
<feBlend mode="normal" in="SourceGraphic" in2="BackgroundImageFix" result="shape"/>
<feGaussianBlur stdDeviation="2.5" result="effect1_foregroundBlur_137_64"/>
</filter>
<filter id="filter3_f_137_64" x="69.3081" y="55.0093" width="28.6113" height="23.877" filterUnits="userSpaceOnUse" color-interpolation-filters="sRGB">
<feFlood flood-opacity="0" result="BackgroundImageFix"/>
<feBlend mode="normal" in="SourceGraphic" in2="BackgroundImageFix" result="shape"/>
<feGaussianBlur stdDeviation="2" result="effect1_foregroundBlur_137_64"/>
</filter>
</defs>
</svg>
